<mxfile host="app.diagrams.net" modified="2023-11-07T07:26:42.563Z" agent="Mozilla/5.0 (Windows NT 10.0; Win64; x64) AppleWebKit/537.36 (KHTML, like Gecko) Chrome/119.0.0.0 Safari/537.36" etag="JNsAz07tKMq8guHYj4x4" version="22.0.8" type="device">
  <diagram name="Page-1" id="EbdtDYpdr8t-L4FDDo54">
    <mxGraphModel dx="1114" dy="600" grid="1" gridSize="10" guides="1" tooltips="1" connect="1" arrows="1" fold="1" page="1" pageScale="1" pageWidth="850" pageHeight="1100" math="0" shadow="0">
      <root>
        <mxCell id="0" />
        <mxCell id="1" parent="0" />
        <mxCell id="Jy9_-xMfFdgT5YaaMaR9-2" value="membuang&lt;br&gt;samah" style="strokeWidth=2;html=1;shape=mxgraph.flowchart.terminator;whiteSpace=wrap;" vertex="1" parent="1">
          <mxGeometry x="90" y="70" width="100" height="60" as="geometry" />
        </mxCell>
        <mxCell id="Jy9_-xMfFdgT5YaaMaR9-3" value="" style="line;strokeWidth=2;direction=south;html=1;" vertex="1" parent="1">
          <mxGeometry x="135" y="130" width="10" height="70" as="geometry" />
        </mxCell>
        <mxCell id="Jy9_-xMfFdgT5YaaMaR9-38" style="edgeStyle=orthogonalEdgeStyle;rounded=0;orthogonalLoop=1;jettySize=auto;html=1;exitX=0.5;exitY=1;exitDx=0;exitDy=0;" edge="1" parent="1" source="Jy9_-xMfFdgT5YaaMaR9-4">
          <mxGeometry relative="1" as="geometry">
            <mxPoint x="140" y="280" as="targetPoint" />
          </mxGeometry>
        </mxCell>
        <mxCell id="Jy9_-xMfFdgT5YaaMaR9-4" value="sampah organik" style="rhombus;whiteSpace=wrap;html=1;" vertex="1" parent="1">
          <mxGeometry x="78.75" y="197.5" width="122.5" height="60" as="geometry" />
        </mxCell>
        <mxCell id="Jy9_-xMfFdgT5YaaMaR9-6" value="" style="line;strokeWidth=2;html=1;" vertex="1" parent="1">
          <mxGeometry x="201" y="223" width="39" height="10" as="geometry" />
        </mxCell>
        <mxCell id="Jy9_-xMfFdgT5YaaMaR9-7" value="Tidak" style="text;html=1;strokeColor=none;fillColor=none;align=center;verticalAlign=middle;whiteSpace=wrap;rounded=0;" vertex="1" parent="1">
          <mxGeometry x="230" y="212.5" width="60" height="30" as="geometry" />
        </mxCell>
        <mxCell id="Jy9_-xMfFdgT5YaaMaR9-31" style="edgeStyle=orthogonalEdgeStyle;rounded=0;orthogonalLoop=1;jettySize=auto;html=1;exitX=0.5;exitY=1;exitDx=0;exitDy=0;" edge="1" parent="1" source="Jy9_-xMfFdgT5YaaMaR9-8">
          <mxGeometry relative="1" as="geometry">
            <mxPoint x="375" y="280" as="targetPoint" />
          </mxGeometry>
        </mxCell>
        <mxCell id="Jy9_-xMfFdgT5YaaMaR9-8" value="sampah yg&lt;br&gt;dapat digunakan&lt;br&gt;kembali" style="rhombus;whiteSpace=wrap;html=1;" vertex="1" parent="1">
          <mxGeometry x="320" y="198.5" width="110" height="58" as="geometry" />
        </mxCell>
        <mxCell id="Jy9_-xMfFdgT5YaaMaR9-9" value="" style="line;strokeWidth=2;html=1;" vertex="1" parent="1">
          <mxGeometry x="280" y="223" width="40" height="10" as="geometry" />
        </mxCell>
        <mxCell id="Jy9_-xMfFdgT5YaaMaR9-27" style="edgeStyle=orthogonalEdgeStyle;rounded=0;orthogonalLoop=1;jettySize=auto;html=1;exitX=0.5;exitY=1;exitDx=0;exitDy=0;" edge="1" parent="1" source="Jy9_-xMfFdgT5YaaMaR9-11">
          <mxGeometry relative="1" as="geometry">
            <mxPoint x="590" y="280" as="targetPoint" />
          </mxGeometry>
        </mxCell>
        <mxCell id="Jy9_-xMfFdgT5YaaMaR9-11" value="sampah yg&lt;br&gt;dapat digunakan&lt;br&gt;kembali" style="rhombus;whiteSpace=wrap;html=1;" vertex="1" parent="1">
          <mxGeometry x="549" y="197.5" width="110" height="60" as="geometry" />
        </mxCell>
        <mxCell id="Jy9_-xMfFdgT5YaaMaR9-12" value="" style="line;strokeWidth=2;html=1;" vertex="1" parent="1">
          <mxGeometry x="430" y="223" width="40" height="10" as="geometry" />
        </mxCell>
        <mxCell id="Jy9_-xMfFdgT5YaaMaR9-13" value="" style="line;strokeWidth=2;html=1;" vertex="1" parent="1">
          <mxGeometry x="510" y="223" width="39" height="10" as="geometry" />
        </mxCell>
        <mxCell id="Jy9_-xMfFdgT5YaaMaR9-15" value="Tidak" style="text;html=1;strokeColor=none;fillColor=none;align=center;verticalAlign=middle;whiteSpace=wrap;rounded=0;" vertex="1" parent="1">
          <mxGeometry x="460" y="211.5" width="60" height="30" as="geometry" />
        </mxCell>
        <mxCell id="Jy9_-xMfFdgT5YaaMaR9-20" value="" style="line;strokeWidth=2;html=1;" vertex="1" parent="1">
          <mxGeometry x="659" y="223" width="31" height="10" as="geometry" />
        </mxCell>
        <mxCell id="Jy9_-xMfFdgT5YaaMaR9-25" style="edgeStyle=orthogonalEdgeStyle;rounded=0;orthogonalLoop=1;jettySize=auto;html=1;" edge="1" parent="1" source="Jy9_-xMfFdgT5YaaMaR9-21">
          <mxGeometry relative="1" as="geometry">
            <mxPoint x="770" y="310" as="targetPoint" />
            <Array as="points">
              <mxPoint x="771" y="228" />
            </Array>
          </mxGeometry>
        </mxCell>
        <mxCell id="Jy9_-xMfFdgT5YaaMaR9-21" value="Tidak" style="text;html=1;strokeColor=none;fillColor=none;align=center;verticalAlign=middle;whiteSpace=wrap;rounded=0;" vertex="1" parent="1">
          <mxGeometry x="680" y="213" width="60" height="30" as="geometry" />
        </mxCell>
        <mxCell id="Jy9_-xMfFdgT5YaaMaR9-26" value="di buang ke tempat embuangan akhir" style="rounded=0;whiteSpace=wrap;html=1;" vertex="1" parent="1">
          <mxGeometry x="710" y="310" width="120" height="60" as="geometry" />
        </mxCell>
        <mxCell id="Jy9_-xMfFdgT5YaaMaR9-29" style="edgeStyle=orthogonalEdgeStyle;rounded=0;orthogonalLoop=1;jettySize=auto;html=1;exitX=0.5;exitY=1;exitDx=0;exitDy=0;" edge="1" parent="1" source="Jy9_-xMfFdgT5YaaMaR9-28">
          <mxGeometry relative="1" as="geometry">
            <mxPoint x="590" y="320" as="targetPoint" />
          </mxGeometry>
        </mxCell>
        <mxCell id="Jy9_-xMfFdgT5YaaMaR9-28" value="ya" style="text;html=1;strokeColor=none;fillColor=none;align=center;verticalAlign=middle;whiteSpace=wrap;rounded=0;" vertex="1" parent="1">
          <mxGeometry x="560" y="270" width="60" height="30" as="geometry" />
        </mxCell>
        <mxCell id="Jy9_-xMfFdgT5YaaMaR9-30" value="di daur ulang menjadi barang lain" style="rounded=0;whiteSpace=wrap;html=1;" vertex="1" parent="1">
          <mxGeometry x="539" y="320" width="120" height="60" as="geometry" />
        </mxCell>
        <mxCell id="Jy9_-xMfFdgT5YaaMaR9-33" style="edgeStyle=orthogonalEdgeStyle;rounded=0;orthogonalLoop=1;jettySize=auto;html=1;exitX=0.5;exitY=1;exitDx=0;exitDy=0;" edge="1" parent="1" source="Jy9_-xMfFdgT5YaaMaR9-32">
          <mxGeometry relative="1" as="geometry">
            <mxPoint x="375" y="320" as="targetPoint" />
          </mxGeometry>
        </mxCell>
        <mxCell id="Jy9_-xMfFdgT5YaaMaR9-32" value="ya" style="text;html=1;strokeColor=none;fillColor=none;align=center;verticalAlign=middle;whiteSpace=wrap;rounded=0;" vertex="1" parent="1">
          <mxGeometry x="345" y="270" width="60" height="30" as="geometry" />
        </mxCell>
        <mxCell id="Jy9_-xMfFdgT5YaaMaR9-34" value="di manfaatkan untuk hal lain" style="rounded=0;whiteSpace=wrap;html=1;" vertex="1" parent="1">
          <mxGeometry x="315" y="320" width="120" height="60" as="geometry" />
        </mxCell>
        <mxCell id="Jy9_-xMfFdgT5YaaMaR9-40" style="edgeStyle=orthogonalEdgeStyle;rounded=0;orthogonalLoop=1;jettySize=auto;html=1;exitX=0.5;exitY=1;exitDx=0;exitDy=0;" edge="1" parent="1" source="Jy9_-xMfFdgT5YaaMaR9-39">
          <mxGeometry relative="1" as="geometry">
            <mxPoint x="140" y="320" as="targetPoint" />
          </mxGeometry>
        </mxCell>
        <mxCell id="Jy9_-xMfFdgT5YaaMaR9-39" value="ya" style="text;html=1;strokeColor=none;fillColor=none;align=center;verticalAlign=middle;whiteSpace=wrap;rounded=0;" vertex="1" parent="1">
          <mxGeometry x="110" y="280" width="60" height="20" as="geometry" />
        </mxCell>
        <mxCell id="Jy9_-xMfFdgT5YaaMaR9-42" style="edgeStyle=orthogonalEdgeStyle;rounded=0;orthogonalLoop=1;jettySize=auto;html=1;exitX=0.5;exitY=1;exitDx=0;exitDy=0;" edge="1" parent="1">
          <mxGeometry relative="1" as="geometry">
            <mxPoint x="485" y="460" as="targetPoint" />
            <mxPoint x="145" y="370" as="sourcePoint" />
            <Array as="points">
              <mxPoint x="145" y="430" />
              <mxPoint x="486" y="430" />
            </Array>
          </mxGeometry>
        </mxCell>
        <mxCell id="Jy9_-xMfFdgT5YaaMaR9-41" value="di olah menjadi pupuk" style="rounded=0;whiteSpace=wrap;html=1;" vertex="1" parent="1">
          <mxGeometry x="90" y="320" width="120" height="60" as="geometry" />
        </mxCell>
        <mxCell id="Jy9_-xMfFdgT5YaaMaR9-44" value="" style="line;strokeWidth=2;direction=south;html=1;" vertex="1" parent="1">
          <mxGeometry x="370" y="380" width="10" height="50" as="geometry" />
        </mxCell>
        <mxCell id="Jy9_-xMfFdgT5YaaMaR9-51" value="" style="shape=partialRectangle;whiteSpace=wrap;html=1;top=0;left=0;fillColor=none;" vertex="1" parent="1">
          <mxGeometry x="650" y="370" width="110" height="60" as="geometry" />
        </mxCell>
        <mxCell id="Jy9_-xMfFdgT5YaaMaR9-57" value="" style="endArrow=none;html=1;edgeStyle=orthogonalEdgeStyle;rounded=0;" edge="1" parent="1">
          <mxGeometry relative="1" as="geometry">
            <mxPoint x="480" y="430" as="sourcePoint" />
            <mxPoint x="650" y="430" as="targetPoint" />
          </mxGeometry>
        </mxCell>
        <mxCell id="Jy9_-xMfFdgT5YaaMaR9-60" value="" style="line;strokeWidth=2;direction=south;html=1;" vertex="1" parent="1">
          <mxGeometry x="594" y="380" width="10" height="50" as="geometry" />
        </mxCell>
        <mxCell id="Jy9_-xMfFdgT5YaaMaR9-61" value="selesai" style="strokeWidth=2;html=1;shape=mxgraph.flowchart.terminator;whiteSpace=wrap;" vertex="1" parent="1">
          <mxGeometry x="435" y="460" width="100" height="60" as="geometry" />
        </mxCell>
      </root>
    </mxGraphModel>
  </diagram>
</mxfile>
